<?xml version="1.0" encoding="utf-8"?>
<!-- Generator: Adobe Illustrator 16.2.1, SVG Export Plug-In . SVG Version: 6.00 Build 0)  -->
<!DOCTYPE svg PUBLIC "-//W3C//DTD SVG 1.1//EN" "http://www.w3.org/Graphics/SVG/1.1/DTD/svg11.dtd">
<svg version="1.1" id="Layer_1" xmlns="http://www.w3.org/2000/svg" xmlns:xlink="http://www.w3.org/1999/xlink" x="0px" y="0px"
	 viewBox="29.5 30.5 514.5 136" enable-background="new 29.5 30.5 514.5 136" xml:space="preserve">
<g>
	<g>
		<polygon fill="#D9E021" points="144,117.689 102.5,140.744 61,117.689 61,60.055 102.5,37 144,60.055 		"/>
	</g>
	<g>

			<linearGradient id="SVGID_1_" gradientUnits="userSpaceOnUse" x1="294.417" y1="498.1436" x2="336.417" y2="498.1436" gradientTransform="matrix(1 0 0 1 -192 -409)">
			<stop  offset="0" style="stop-color:#C2C732"/>
			<stop  offset="0.5546" style="stop-color:#D9E021"/>
		</linearGradient>
		<polygon fill="url(#SVGID_1_)" points="144.417,118.124 102.417,141.311 102.417,36.977 144.417,60.162 		"/>
	</g>
	<g>
		<path fill="#7D8D00" d="M102.5,37L144,60.055v57.634l-41.5,23.056L61,117.689V60.055L102.5,37 M102.839,32
			c-0.836,0-1.672,0.209-2.427,0.628L58.727,55.683C57.139,56.564,56,58.238,56,60.055v57.634c0,1.815,1.139,3.49,2.727,4.373
			l41.609,23.055c0.755,0.419,1.629,0.628,2.465,0.628c0.836,0,1.691-0.209,2.446-0.628l41.356-23.055
			c1.588-0.883,2.397-2.558,2.397-4.373V60.055c0-1.816-0.8-3.49-2.388-4.372l-41.439-23.055C104.418,32.209,103.675,32,102.839,32
			L102.839,32z"/>
	</g>
	<g>
		<path fill="#7D8D00" d="M102.333,56.06l30,14.593v36.48l-30,14.594V56.333 M101.895,53.06c-0.554,0-0.888,0.153-1.373,0.457
			c-0.876,0.548-1.189,1.509-1.189,2.543v65.667c0,1.032,0.313,1.994,1.189,2.543c0.484,0.305,0.928,0.457,1.482,0.457
			c0.447,0,0.841-0.101,1.256-0.303l30.218-14.593c1.033-0.501,1.854-1.55,1.854-2.698v-36.48c0-1.148-0.849-2.197-1.882-2.698
			l-30.149-14.593C102.887,53.159,102.342,53.06,101.895,53.06L101.895,53.06z"/>
	</g>

		<polyline fill="none" stroke="#7D8D00" stroke-width="3" stroke-linecap="round" stroke-linejoin="round" stroke-miterlimit="10" points="
		138.889,113.379 102.694,133.051 66.5,113.379 66.5,64.201 102.694,44.529 138.517,64.049 	"/>

		<line fill="none" stroke="#7D8D00" stroke-width="3" stroke-linecap="round" stroke-linejoin="round" stroke-miterlimit="10" x1="145.727" y1="59.168" x2="157.346" y2="50.269"/>
	<g>

			<line fill="none" stroke="#7D8D00" stroke-width="3" stroke-linecap="round" stroke-linejoin="round" stroke-miterlimit="10" x1="59.625" y1="59" x2="48.619" y2="50.644"/>
	</g>

		<line fill="none" stroke="#7D8D00" stroke-width="3" stroke-linecap="round" stroke-linejoin="round" stroke-miterlimit="10" x1="145.375" y1="118.75" x2="156.471" y2="127.068"/>
	<g>

			<line fill="none" stroke="#7D8D00" stroke-width="3" stroke-linecap="round" stroke-linejoin="round" stroke-miterlimit="10" x1="59" y1="118.625" x2="48.619" y2="127.068"/>
	</g>
	<g>

			<line fill="none" stroke="#7D8D00" stroke-width="3" stroke-linecap="round" stroke-linejoin="round" stroke-miterlimit="10" x1="58.927" y1="88.556" x2="42.274" y2="88.594"/>

			<path fill="#D9E021" stroke="#7D8D00" stroke-width="3" stroke-linecap="round" stroke-linejoin="round" stroke-miterlimit="10" d="
			M33.687,86.376c1.43-1.883,4.117-2.243,5.994-0.815c1.878,1.433,2.242,4.117,0.811,5.996c-1.432,1.881-4.117,2.242-5.996,0.813
			C32.619,90.934,32.254,88.253,33.687,86.376z"/>

			<path fill="#D9E021" stroke="#7D8D00" stroke-width="3" stroke-linecap="round" stroke-linejoin="round" stroke-miterlimit="10" d="
			M41.687,46.376c1.43-1.883,4.117-2.243,5.994-0.815c1.878,1.433,2.242,4.117,0.811,5.996c-1.432,1.881-4.117,2.242-5.996,0.813
			C40.619,50.934,40.254,48.253,41.687,46.376z"/>

			<path fill="#D9E021" stroke="#7D8D00" stroke-width="3" stroke-linecap="round" stroke-linejoin="round" stroke-miterlimit="10" d="
			M155.687,45.376c1.43-1.883,4.117-2.243,5.994-0.815c1.878,1.433,2.242,4.117,0.811,5.996c-1.432,1.881-4.117,2.242-5.996,0.813
			C154.619,49.934,154.254,47.253,155.687,45.376z"/>

			<path fill="#D9E021" stroke="#7D8D00" stroke-width="3" stroke-linecap="round" stroke-linejoin="round" stroke-miterlimit="10" d="
			M163.687,86.376c1.43-1.883,4.117-2.243,5.994-0.815c1.878,1.433,2.242,4.117,0.811,5.996c-1.432,1.881-4.117,2.242-5.996,0.813
			C162.619,90.934,162.254,88.253,163.687,86.376z"/>

			<path fill="#D9E021" stroke="#7D8D00" stroke-width="3" stroke-linecap="round" stroke-linejoin="round" stroke-miterlimit="10" d="
			M156.687,127.376c1.43-1.883,4.117-2.243,5.994-0.815c1.878,1.435,2.242,4.117,0.811,5.996c-1.432,1.881-4.117,2.242-5.996,0.813
			C155.619,131.934,155.254,129.253,156.687,127.376z"/>

			<path fill="#D9E021" stroke="#7D8D00" stroke-width="3" stroke-linecap="round" stroke-linejoin="round" stroke-miterlimit="10" d="
			M41.687,126.376c1.43-1.883,4.117-2.243,5.994-0.815c1.878,1.435,2.242,4.117,0.811,5.996c-1.432,1.881-4.117,2.242-5.996,0.813
			C40.619,130.934,40.254,128.253,41.687,126.376z"/>
	</g>
	<g>

			<line fill="none" stroke="#7D8D00" stroke-width="3" stroke-linecap="round" stroke-linejoin="round" stroke-miterlimit="10" x1="146.137" y1="88.556" x2="162.79" y2="88.594"/>
	</g>
	<g>
		<path fill="#4D4D4D" d="M221.123,100.123c-0.36,1.92-0.08,2.92,0.88,2.92c0.52,0,1.4-0.398,2.52-1.8l0.04,1.08
			c-1.16,1.56-2.679,2.319-3.559,2.319c-1.8,0-2.64-1.399-2.08-4.521l1.399-8.078h-2.6l0.28-1.399h2.6l1.12-6.399h2.2l-1.08,6.399
			h3.2l-0.28,1.399h-3.2L221.123,100.123z"/>
		<path fill="#4D4D4D" d="M228.761,81.127l0.12-0.84l4.759-1l-2.399,13.958c1.16-1.96,2.879-3.28,4.599-3.28
			c2.72,0,3.399,2.56,2.84,5.959l-0.92,5.479c-0.16,0.92-0.12,1.64,0.44,1.64c0.44,0,1.28-0.6,1.6-0.88v0.92
			c-0.8,0.8-1.919,1.399-2.64,1.399c-1.4,0-2-1.199-1.72-2.799l1-5.562c0.48-2.6,0.2-4.279-1.72-4.279c-1.28,0-3.56,2-4.319,6.159
			l-1.08,5.959h-2.24l3.199-18.157C231.001,81.807,230.761,81.127,228.761,81.127z"/>
		<path fill="#4D4D4D" d="M247.957,103.043c1,0,2.56-0.8,3.639-1.84l0.36,0.8c-1.32,1.479-3.32,2.64-5.04,2.64
			c-3.319,0-4.999-3.317-4.279-7.356c0.76-4.239,4.08-7.319,6.879-7.319c2.12,0,3.28,1.561,2.919,3.439
			c-0.36,2.08-2.679,4.6-7.639,5.64C244.757,101.483,245.757,103.043,247.957,103.043z M250.437,93.444
			c0.2-1.039-0.2-1.879-1.2-1.879c-1.84,0-3.6,2.159-4.239,5.759c-0.04,0.24-0.08,0.439-0.12,0.64
			C248.397,97.124,250.157,95.044,250.437,93.444z"/>
	</g>
	<g>
		<path fill="#4D4D4D" d="M447.174,135.607h2.2l-1.08,6.398c1-0.479,1.68-0.681,2.76-0.681c3.359,0,5.521,3.278,4.801,7.317
			c-0.682,4.039-3.359,7.358-6.721,7.358c-1.239,0-2.357-0.8-2.999-1.84l-1,5.68c-0.72,3.999-0.318,4.64,2.359,4.64l-0.16,0.84
			h-8.599l0.2-0.84c2.64,0,3.238-0.641,3.959-4.64l2.56-14.438c-0.88,1.762-1.879,3.279-3,4.601l-0.68-0.479
			c1.68-1.961,4.079-6.358,5.079-12.078L447.174,135.607z M450.814,142.607c-1.28,0-2.24,0.56-2.842,1l-1.198,7.078
			c-0.36,2.16,0.72,3.719,2.198,3.719c2.28,0,3.761-2.56,4.319-5.758C453.851,145.447,453.173,142.607,450.814,142.607z"/>
		<path fill="#4D4D4D" d="M466.97,141.327c1.8,0,2.2,1.479,2,2.521c-0.08,0.521-0.52,1.359-1.6,1.359c-0.72,0-1.2-0.6-1.08-1.28
			c0.08-0.56,0.04-0.84-0.36-0.84c-1.16,0-3.08,2.681-4.079,8.358l-0.68,3.88h-2.12l1.92-10.759c0.16-0.959,0.08-1.681-0.438-1.681
			c-0.48,0-1.32,0.601-1.602,0.921v-0.959c0.762-0.802,1.839-1.361,2.602-1.361c1.397,0,1.879,1.16,1.56,2.761l-0.2,1
			C463.891,142.729,465.45,141.327,466.97,141.327z"/>
		<path fill="#4D4D4D" d="M474.768,156.005c-3.357,0-5.519-3.319-4.799-7.358c0.722-4.039,4.04-7.317,7.399-7.317
			c3.317,0,5.438,3.278,4.719,7.317S478.087,156.005,474.768,156.005z M477.167,142.566c-2.4,0-4,2.721-4.6,6.08
			c-0.602,3.357,0,6.119,2.398,6.119c2.399,0,3.959-2.762,4.561-6.119C480.126,145.287,479.527,142.566,477.167,142.566z"/>
		<path fill="#4D4D4D" d="M481.526,166.003c-2.479,0-3.602-1.759-3.399-2.959c0.12-0.56,0.562-1,1.24-1c1.72,0,0.28,2.8,2.52,2.8
			c1.28,0,2.24-1.08,3.04-5.6l2.602-14.678c0.16-0.959,0.08-1.68-0.44-1.68c-0.479,0-1.32,0.6-1.6,0.92v-0.959
			c0.76-0.802,1.839-1.361,2.6-1.361c1.399,0,2,1.16,1.719,2.761l-2.679,14.997C486.285,164.004,484.005,166.003,481.526,166.003z
			 M489.924,137.008c-0.76,0-1.32-0.6-1.16-1.398c0.12-0.76,0.92-1.398,1.682-1.398c0.76,0,1.278,0.641,1.158,1.398
			C491.484,136.408,490.724,137.008,489.924,137.008z"/>
		<path fill="#4D4D4D" d="M498.242,154.404c1,0,2.56-0.799,3.639-1.84l0.36,0.801c-1.32,1.48-3.32,2.64-5.04,2.64
			c-3.319,0-4.999-3.319-4.279-7.358c0.76-4.237,4.08-7.317,6.879-7.317c2.12,0,3.28,1.562,2.919,3.438
			c-0.358,2.08-2.679,4.601-7.639,5.641C495.042,152.846,496.042,154.404,498.242,154.404z M500.722,144.807
			c0.2-1.039-0.2-1.879-1.2-1.879c-1.84,0-3.6,2.159-4.237,5.76c-0.04,0.238-0.08,0.438-0.12,0.641
			C498.682,148.486,500.442,146.406,500.722,144.807z"/>
		<path fill="#4D4D4D" d="M509.439,156.005c-3.279,0-4.761-2.999-4.039-6.999c0.84-4.719,4.237-7.679,6.639-7.679
			c2.64,0,3.319,1.68,3.16,2.64c-0.12,0.641-0.48,1.32-1.32,1.32c-1.64,0-0.439-2.68-2.04-2.68c-1.359,0-3.359,2.119-4.119,6.396
			c-0.56,3.24,0.32,5.398,2.8,5.398c0.959,0,2.319-0.6,3.521-1.84l0.4,0.801C512.999,155.005,511.159,156.005,509.439,156.005z"/>
		<path fill="#4D4D4D" d="M520.117,151.486c-0.36,1.918-0.08,2.918,0.88,2.918c0.52,0,1.4-0.398,2.52-1.799l0.04,1.08
			c-1.158,1.56-2.679,2.317-3.559,2.317c-1.8,0-2.64-1.397-2.08-4.521l1.399-8.078h-2.602l0.28-1.398h2.6l1.12-6.398h2.2
			l-1.08,6.398h3.2l-0.28,1.398h-3.2L520.117,151.486z"/>
	</g>
	<g>
		<path fill="#4D4D4D" d="M212.561,115.279c0,12.455-3.995,17.201-13.629,17.201c-9.682,0-13.488-4.746-13.488-17.201
			c0-12.547,3.807-16.777,13.488-16.777C208.566,98.502,212.561,102.732,212.561,115.279z M190.332,115.327
			c0,9.493,2.068,12.83,8.601,12.83c6.533,0,8.835-3.337,8.835-12.83c0-9.399-2.303-12.454-8.835-12.454
			C192.401,102.873,190.332,105.928,190.332,115.327z"/>
		<path fill="#4D4D4D" d="M236.503,120.92c0,8.412-3.055,11.516-7.99,11.516c-2.772,0-5.169-0.752-6.392-1.41v11.795h-4.276v-31.438
			c2.303-1.128,5.733-2.021,8.929-2.021C233.167,109.357,236.503,112.461,236.503,120.92z M222.122,114.48v12.172
			c1.41,0.752,3.008,1.457,5.029,1.457c3.008,0,4.935-1.738,4.935-7.33c0-5.5-2.115-7.191-5.405-7.191
			C224.848,113.588,223.297,114.012,222.122,114.48z"/>
		<path fill="#4D4D4D" d="M258.519,119.98v2.256H244.89c0.094,4.84,2.115,6.109,5.545,6.109c3.619,0,5.687-1.271,6.533-1.929
			l1.457,3.808c-1.41,0.846-4.136,2.209-8.177,2.209c-6.58,0-9.682-2.867-9.682-11.607c0-8.46,3.431-11.469,9.211-11.469
			C256.686,109.357,258.519,113.541,258.519,119.98z M244.889,118.758h9.446c0-3.994-0.846-5.545-4.605-5.545
			C246.675,113.213,245.03,114.622,244.889,118.758z"/>
		<path fill="#4D4D4D" d="M281.782,119.182v12.644h-4.276v-12.55c0-3.899-1.504-5.732-5.029-5.732c-2.115,0-3.572,0.52-4.606,0.895
			v17.39h-4.323V111.38c2.115-1.034,5.499-2.021,8.929-2.021C279.621,109.357,281.782,112.602,281.782,119.182z"/>
		<path fill="#4D4D4D" d="M320.744,101.65l-1.881,3.808c-1.456-1.034-3.666-2.491-7.754-2.491c-4.936,0-8.412,2.444-8.412,12.502
			c0,9.446,3.525,12.406,8.506,12.406c4.418,0,6.814-1.691,8.695-3.008l1.645,3.9c-2.396,1.787-5.076,3.666-10.809,3.666
			c-7.661,0-12.924-3.809-12.924-17.062c0-12.877,5.17-16.872,12.83-16.872C315.902,98.502,318.864,100.194,320.744,101.65z"/>
		<path fill="#4D4D4D" d="M330.645,102.779c0,1.738-0.658,2.396-2.443,2.396c-1.833,0-2.444-0.657-2.444-2.396
			c0-1.833,0.611-2.491,2.444-2.491C329.986,100.288,330.645,100.946,330.645,102.779z M330.314,131.823h-4.276v-21.808h4.276
			V131.823z"/>
		<path fill="#4D4D4D" d="M345.678,131.823h-3.619l-8.129-21.808h4.512l5.593,15.557l5.688-15.557h4.463L345.678,131.823z"/>
		<path fill="#4D4D4D" d="M362.43,102.779c0,1.738-0.658,2.396-2.445,2.396c-1.832,0-2.442-0.657-2.442-2.396
			c0-1.833,0.61-2.491,2.442-2.491C361.771,100.288,362.43,100.946,362.43,102.779z M362.1,131.823h-4.274v-21.808h4.274V131.823z"
			/>
		<path fill="#4D4D4D" d="M383.761,111.614l-1.409,3.713c-0.939-0.705-2.351-1.786-5.5-1.786c-3.289,0-5.264,1.551-5.264,7.379
			c0,5.78,2.021,7.379,5.545,7.379c2.773,0,4.794-1.176,5.688-1.88l1.599,3.665c-1.646,1.034-3.899,2.352-7.94,2.352
			c-6.58,0-9.354-2.819-9.354-11.607c0-8.555,3.243-11.469,9.069-11.469C380.518,109.357,382.352,110.675,383.761,111.614z"/>
		<path fill="#4D4D4D" d="M423.615,115.374c0,11.938-4.371,16.449-14.381,16.449h-9.541V99.16h9.491
			C419.057,99.16,423.615,103.625,423.615,115.374z M404.347,103.438v24.017h4.323c7.191,0,10.246-2.585,10.246-12.078
			c0-8.931-2.914-11.938-9.775-11.938H404.347z"/>
		<path fill="#4D4D4D" d="M444.089,117.725v12.83c-2.444,1.223-5.922,1.928-9.212,1.928c-4.84,0-7.801-1.787-7.801-6.346
			c0-5.311,3.666-6.908,8.646-6.908c1.929,0,3.29,0.188,4.089,0.328v-1.551c0-3.617-0.985-4.465-3.854-4.465
			c-2.256,0-4.793,0.895-6.721,2.021l-1.553-3.713c2.021-1.271,5.358-2.492,8.979-2.492
			C441.739,109.357,444.089,110.861,444.089,117.725z M431.446,125.854c0,2.115,1.361,2.961,3.854,2.961
			c1.976,0,3.809-0.422,4.653-0.752v-4.979c-0.846-0.233-2.444-0.423-4.042-0.423C433.279,122.659,431.446,123.363,431.446,125.854z
			"/>
		<path fill="#4D4D4D" d="M454.772,110.018h4.745v3.808h-4.745v11.421c0,1.927,0.609,2.584,2.35,2.584
			c0.705,0,1.598-0.096,2.585-0.281v3.994c-1.504,0.234-2.867,0.473-4.089,0.473c-3.431,0-5.123-1.554-5.123-5.688v-12.501h-2.914
			v-3.807h2.914v-6.814h4.277V110.018L454.772,110.018z"/>
		<path fill="#4D4D4D" d="M479.869,117.725v12.83c-2.444,1.223-5.922,1.928-9.212,1.928c-4.84,0-7.801-1.787-7.801-6.346
			c0-5.311,3.665-6.908,8.646-6.908c1.927,0,3.29,0.188,4.089,0.328v-1.551c0-3.617-0.985-4.465-3.854-4.465
			c-2.257,0-4.793,0.895-6.723,2.021l-1.551-3.713c2.021-1.271,5.358-2.492,8.979-2.492
			C477.519,109.357,479.869,110.861,479.869,117.725z M467.227,125.854c0,2.115,1.363,2.961,3.854,2.961
			c1.974,0,3.807-0.422,4.653-0.752v-4.979c-0.848-0.233-2.444-0.423-4.042-0.423C469.06,122.659,467.227,123.363,467.227,125.854z"
			/>
	</g>
</g>
</svg>
