<svg xmlns="http://www.w3.org/2000/svg" viewBox="29.5 30.5 514.5 136" enable-background="new 29.5 30.5 514.5 136"><path fill="#D9E021" d="M144 117.689l-41.5 23.055-41.5-23.055v-57.634l41.5-23.055 41.5 23.055z"/><linearGradient id="a" gradientUnits="userSpaceOnUse" x1="294.417" y1="498.144" x2="336.417" y2="498.144" gradientTransform="translate(-192 -409)"><stop offset="0" stop-color="#C2C732"/><stop offset=".555" stop-color="#D9E021"/></linearGradient><path fill="url(#a)" d="M144.417 118.124l-42 23.187v-104.334l42 23.185z"/><path fill="#7D8D00" d="M102.5 37l41.5 23.055v57.634l-41.5 23.056-41.5-23.056v-57.634l41.5-23.055m.339-5c-.836 0-1.672.209-2.427.628l-41.685 23.055c-1.588.881-2.727 2.555-2.727 4.372v57.634c0 1.815 1.139 3.49 2.727 4.373l41.609 23.055c.755.419 1.629.628 2.465.628.836 0 1.691-.209 2.446-.628l41.356-23.055c1.588-.883 2.397-2.558 2.397-4.373v-57.634c0-1.816-.8-3.49-2.388-4.372l-41.439-23.055c-.755-.419-1.498-.628-2.334-.628zM102.333 56.06l30 14.593v36.48l-30 14.594v-65.394m-.438-3.273c-.554 0-.888.153-1.373.457-.876.548-1.189 1.509-1.189 2.543v65.667c0 1.032.313 1.994 1.189 2.543.484.305.928.457 1.482.457.447 0 .841-.101 1.256-.303l30.218-14.593c1.033-.501 1.854-1.55 1.854-2.698v-36.48c0-1.148-.849-2.197-1.882-2.698l-30.149-14.593c-.414-.203-.959-.302-1.406-.302z"/><path stroke="#7D8D00" stroke-width="3" stroke-linecap="round" stroke-linejoin="round" stroke-miterlimit="10" fill="none" d="M138.889 113.379l-36.195 19.672-36.194-19.672v-49.178l36.194-19.672 35.823 19.52M145.727 59.168l11.619-8.899M59.625 59l-11.006-8.356M145.375 118.75l11.096 8.318M59 118.625l-10.381 8.443"/><g stroke="#7D8D00" stroke-width="3" stroke-linecap="round" stroke-linejoin="round" stroke-miterlimit="10"><path fill="none" d="M58.927 88.556l-16.653.038"/><path fill="#D9E021" d="M33.687 86.376c1.43-1.883 4.117-2.243 5.994-.815 1.878 1.433 2.242 4.117.811 5.996-1.432 1.881-4.117 2.242-5.996.813-1.877-1.436-2.242-4.117-.809-5.994zM41.687 46.376c1.43-1.883 4.117-2.243 5.994-.815 1.878 1.433 2.242 4.117.811 5.996-1.432 1.881-4.117 2.242-5.996.813-1.877-1.436-2.242-4.117-.809-5.994zM155.687 45.376c1.43-1.883 4.117-2.243 5.994-.815 1.878 1.433 2.242 4.117.811 5.996-1.432 1.881-4.117 2.242-5.996.813-1.877-1.436-2.242-4.117-.809-5.994zM163.687 86.376c1.43-1.883 4.117-2.243 5.994-.815 1.878 1.433 2.242 4.117.811 5.996-1.432 1.881-4.117 2.242-5.996.813-1.877-1.436-2.242-4.117-.809-5.994zM156.687 127.376c1.43-1.883 4.117-2.243 5.994-.815 1.878 1.435 2.242 4.117.811 5.996-1.432 1.881-4.117 2.242-5.996.813-1.877-1.436-2.242-4.117-.809-5.994zM41.687 126.376c1.43-1.883 4.117-2.243 5.994-.815 1.878 1.435 2.242 4.117.811 5.996-1.432 1.881-4.117 2.242-5.996.813-1.877-1.436-2.242-4.117-.809-5.994z"/></g><path stroke="#7D8D00" stroke-width="3" stroke-linecap="round" stroke-linejoin="round" stroke-miterlimit="10" fill="none" d="M146.137 88.556l16.653.038"/><g fill="#4D4D4D"><path d="M221.123 100.123c-.36 1.92-.08 2.92.88 2.92.52 0 1.4-.398 2.52-1.8l.04 1.08c-1.16 1.56-2.679 2.319-3.559 2.319-1.8 0-2.64-1.399-2.08-4.521l1.399-8.078h-2.6l.28-1.399h2.6l1.12-6.399h2.2l-1.08 6.399h3.2l-.28 1.399h-3.2l-1.44 8.08zM228.761 81.127l.12-.84 4.759-1-2.399 13.958c1.16-1.96 2.879-3.28 4.599-3.28 2.72 0 3.399 2.56 2.84 5.959l-.92 5.479c-.16.92-.12 1.64.44 1.64.44 0 1.28-.6 1.6-.88v.92c-.8.8-1.919 1.399-2.64 1.399-1.4 0-2-1.199-1.72-2.799l1-5.562c.48-2.6.2-4.279-1.72-4.279-1.28 0-3.56 2-4.319 6.159l-1.08 5.959h-2.24l3.199-18.157c.721-3.996.481-4.676-1.519-4.676zM247.957 103.043c1 0 2.56-.8 3.639-1.84l.36.8c-1.32 1.479-3.32 2.64-5.04 2.64-3.319 0-4.999-3.317-4.279-7.356.76-4.239 4.08-7.319 6.879-7.319 2.12 0 3.28 1.561 2.919 3.439-.36 2.08-2.679 4.6-7.639 5.64-.039 2.436.961 3.996 3.161 3.996zm2.48-9.599c.2-1.039-.2-1.879-1.2-1.879-1.84 0-3.6 2.159-4.239 5.759l-.12.64c3.519-.84 5.279-2.92 5.559-4.52z"/></g><g fill="#4D4D4D"><path d="M447.174 135.607h2.2l-1.08 6.398c1-.479 1.68-.681 2.76-.681 3.359 0 5.521 3.278 4.801 7.317-.682 4.039-3.359 7.358-6.721 7.358-1.239 0-2.357-.8-2.999-1.84l-1 5.68c-.72 3.999-.318 4.64 2.359 4.64l-.16.84h-8.599l.2-.84c2.64 0 3.238-.641 3.959-4.64l2.56-14.438c-.88 1.762-1.879 3.279-3 4.601l-.68-.479c1.68-1.961 4.079-6.358 5.079-12.078l.321-1.838zm3.64 7c-1.28 0-2.24.56-2.842 1l-1.198 7.078c-.36 2.16.72 3.719 2.198 3.719 2.28 0 3.761-2.56 4.319-5.758.56-3.199-.118-6.039-2.477-6.039zM466.97 141.327c1.8 0 2.2 1.479 2 2.521-.08.521-.52 1.359-1.6 1.359-.72 0-1.2-.6-1.08-1.28.08-.56.04-.84-.36-.84-1.16 0-3.08 2.681-4.079 8.358l-.68 3.88h-2.12l1.92-10.759c.16-.959.08-1.681-.438-1.681-.48 0-1.32.601-1.602.921v-.959c.762-.802 1.839-1.361 2.602-1.361 1.397 0 1.879 1.16 1.56 2.761l-.2 1c.998-2.518 2.557-3.92 4.077-3.92zM474.768 156.005c-3.357 0-5.519-3.319-4.799-7.358.722-4.039 4.04-7.317 7.399-7.317 3.317 0 5.438 3.278 4.719 7.317s-4 7.358-7.319 7.358zm2.399-13.439c-2.4 0-4 2.721-4.6 6.08-.602 3.357 0 6.119 2.398 6.119 2.399 0 3.959-2.762 4.561-6.119.6-3.359.001-6.08-2.359-6.08zM481.526 166.003c-2.479 0-3.602-1.759-3.399-2.959.12-.56.562-1 1.24-1 1.72 0 .28 2.8 2.52 2.8 1.28 0 2.24-1.08 3.04-5.6l2.602-14.678c.16-.959.08-1.68-.44-1.68-.479 0-1.32.6-1.6.92v-.959c.76-.802 1.839-1.361 2.6-1.361 1.399 0 2 1.16 1.719 2.761l-2.679 14.997c-.844 4.76-3.124 6.759-5.603 6.759zm8.398-28.995c-.76 0-1.32-.6-1.16-1.398.12-.76.92-1.398 1.682-1.398.76 0 1.278.641 1.158 1.398-.12.798-.88 1.398-1.68 1.398zM498.242 154.404c1 0 2.56-.799 3.639-1.84l.36.801c-1.32 1.48-3.32 2.64-5.04 2.64-3.319 0-4.999-3.319-4.279-7.358.76-4.237 4.08-7.317 6.879-7.317 2.12 0 3.28 1.562 2.919 3.438-.358 2.08-2.679 4.601-7.639 5.641-.039 2.437.961 3.995 3.161 3.995zm2.48-9.597c.2-1.039-.2-1.879-1.2-1.879-1.84 0-3.6 2.159-4.237 5.76l-.12.641c3.517-.843 5.277-2.923 5.557-4.522zM509.439 156.005c-3.279 0-4.761-2.999-4.039-6.999.84-4.719 4.237-7.679 6.639-7.679 2.64 0 3.319 1.68 3.16 2.64-.12.641-.48 1.32-1.32 1.32-1.64 0-.439-2.68-2.04-2.68-1.359 0-3.359 2.119-4.119 6.396-.56 3.24.32 5.398 2.8 5.398.959 0 2.319-.6 3.521-1.84l.4.801c-1.442 1.643-3.282 2.643-5.002 2.643zM520.117 151.486c-.36 1.918-.08 2.918.88 2.918.52 0 1.4-.398 2.52-1.799l.04 1.08c-1.158 1.56-2.679 2.317-3.559 2.317-1.8 0-2.64-1.397-2.08-4.521l1.399-8.078h-2.602l.28-1.398h2.6l1.12-6.398h2.2l-1.08 6.398h3.2l-.28 1.398h-3.2l-1.438 8.083z"/></g><g fill="#4D4D4D"><path d="M212.561 115.279c0 12.455-3.995 17.201-13.629 17.201-9.682 0-13.488-4.746-13.488-17.201 0-12.547 3.807-16.777 13.488-16.777 9.634 0 13.629 4.23 13.629 16.777zm-22.229.048c0 9.493 2.068 12.83 8.601 12.83 6.533 0 8.835-3.337 8.835-12.83 0-9.399-2.303-12.454-8.835-12.454-6.532 0-8.601 3.055-8.601 12.454zM236.503 120.92c0 8.412-3.055 11.516-7.99 11.516-2.772 0-5.169-.752-6.392-1.41v11.795h-4.276v-31.438c2.303-1.128 5.733-2.021 8.929-2.021 6.393-.005 9.729 3.099 9.729 11.558zm-14.381-6.44v12.172c1.41.752 3.008 1.457 5.029 1.457 3.008 0 4.935-1.738 4.935-7.33 0-5.5-2.115-7.191-5.405-7.191-1.833 0-3.384.424-4.559.892zM258.519 119.98v2.256h-13.629c.094 4.84 2.115 6.109 5.545 6.109 3.619 0 5.687-1.271 6.533-1.929l1.457 3.808c-1.41.846-4.136 2.209-8.177 2.209-6.58 0-9.682-2.867-9.682-11.607 0-8.46 3.431-11.469 9.211-11.469 6.909 0 8.742 4.184 8.742 10.623zm-13.63-1.222h9.446c0-3.994-.846-5.545-4.605-5.545-3.055 0-4.7 1.409-4.841 5.545zM281.782 119.182v12.644h-4.276v-12.55c0-3.899-1.504-5.732-5.029-5.732-2.115 0-3.572.52-4.606.895v17.39h-4.323v-20.449c2.115-1.034 5.499-2.021 8.929-2.021 7.144-.002 9.305 3.243 9.305 9.823zM320.744 101.65l-1.881 3.808c-1.456-1.034-3.666-2.491-7.754-2.491-4.936 0-8.412 2.444-8.412 12.502 0 9.446 3.525 12.406 8.506 12.406 4.418 0 6.814-1.691 8.695-3.008l1.645 3.9c-2.396 1.787-5.076 3.666-10.809 3.666-7.661 0-12.924-3.809-12.924-17.062 0-12.877 5.17-16.872 12.83-16.872 5.262.003 8.224 1.695 10.104 3.151zM330.645 102.779c0 1.738-.658 2.396-2.443 2.396-1.833 0-2.444-.657-2.444-2.396 0-1.833.611-2.491 2.444-2.491 1.784 0 2.443.658 2.443 2.491zm-.331 29.044h-4.276v-21.808h4.276v21.808zM345.678 131.823h-3.619l-8.129-21.808h4.512l5.593 15.557 5.688-15.557h4.463l-8.508 21.808zM362.43 102.779c0 1.738-.658 2.396-2.445 2.396-1.832 0-2.442-.657-2.442-2.396 0-1.833.61-2.491 2.442-2.491 1.786 0 2.445.658 2.445 2.491zm-.33 29.044h-4.274v-21.808h4.274v21.808zM383.761 111.614l-1.409 3.713c-.939-.705-2.351-1.786-5.5-1.786-3.289 0-5.264 1.551-5.264 7.379 0 5.78 2.021 7.379 5.545 7.379 2.773 0 4.794-1.176 5.688-1.88l1.599 3.665c-1.646 1.034-3.899 2.352-7.94 2.352-6.58 0-9.354-2.819-9.354-11.607 0-8.555 3.243-11.469 9.069-11.469 4.323-.003 6.157 1.315 7.566 2.254zM423.615 115.374c0 11.938-4.371 16.449-14.381 16.449h-9.541v-32.663h9.491c9.873 0 14.431 4.465 14.431 16.214zm-19.268-11.936v24.017h4.323c7.191 0 10.246-2.585 10.246-12.078 0-8.931-2.914-11.938-9.775-11.938h-4.794zM444.089 117.725v12.83c-2.444 1.223-5.922 1.928-9.212 1.928-4.84 0-7.801-1.787-7.801-6.346 0-5.311 3.666-6.908 8.646-6.908 1.929 0 3.29.188 4.089.328v-1.551c0-3.617-.985-4.465-3.854-4.465-2.256 0-4.793.895-6.721 2.021l-1.553-3.713c2.021-1.271 5.358-2.492 8.979-2.492 5.077 0 7.427 1.504 7.427 8.368zm-12.643 8.129c0 2.115 1.361 2.961 3.854 2.961 1.976 0 3.809-.422 4.653-.752v-4.979c-.846-.233-2.444-.423-4.042-.423-2.632-.002-4.465.702-4.465 3.193zM454.772 110.018h4.745v3.808h-4.745v11.421c0 1.927.609 2.584 2.35 2.584.705 0 1.598-.096 2.585-.281v3.994c-1.504.234-2.867.473-4.089.473-3.431 0-5.123-1.554-5.123-5.688v-12.501h-2.914v-3.807h2.914v-6.814h4.277v6.811zM479.869 117.725v12.83c-2.444 1.223-5.922 1.928-9.212 1.928-4.84 0-7.801-1.787-7.801-6.346 0-5.311 3.665-6.908 8.646-6.908 1.927 0 3.29.188 4.089.328v-1.551c0-3.617-.985-4.465-3.854-4.465-2.257 0-4.793.895-6.723 2.021l-1.551-3.713c2.021-1.271 5.358-2.492 8.979-2.492 5.077 0 7.427 1.504 7.427 8.368zm-12.642 8.129c0 2.115 1.363 2.961 3.854 2.961 1.974 0 3.807-.422 4.653-.752v-4.979c-.848-.233-2.444-.423-4.042-.423-2.632-.002-4.465.702-4.465 3.193z"/></g></svg>